<?xml version="1.0" encoding="utf-8"?>
<!-- Generator: Adobe Illustrator 16.0.3, SVG Export Plug-In . SVG Version: 6.00 Build 0)  -->
<!DOCTYPE svg PUBLIC "-//W3C//DTD SVG 1.1//EN" "http://www.w3.org/Graphics/SVG/1.1/DTD/svg11.dtd">
<svg version="1.1" id="Calque_1" xmlns="http://www.w3.org/2000/svg" xmlns:xlink="http://www.w3.org/1999/xlink" x="0px" y="0px"
	 width="75px" height="75px" viewBox="0 0 75 75" enable-background="new 0 0 75 75" xml:space="preserve">
<path fill="#3F3F3F" d="M55.714,7.931L19.132,7.95c-4.165,0-7.539,3.371-7.539,7.539V54.21v6.995c0,4.16,3.375,7.535,7.539,7.535
	l36.582-0.02c4.166,0,7.538-3.374,7.538-7.535V54.21V15.469C63.253,11.304,59.88,7.931,55.714,7.931z M24.792,60.932
	c0,1.034-0.838,1.878-1.871,1.878h-4.23c-1.034,0-1.871-0.844-1.871-1.878v-1.873c0-1.029,0.836-1.868,1.871-1.868h4.23
	c1.033,0,1.871,0.838,1.871,1.868V60.932z M24.792,53.138c0,1.028-0.838,1.874-1.871,1.874h-4.23c-1.034,0-1.871-0.839-1.871-1.874
	v-1.874c0-1.033,0.836-1.873,1.871-1.873h4.23c1.033,0,1.871,0.839,1.871,1.873V53.138z M24.792,45.337
	c0,1.028-0.838,1.873-1.871,1.873h-4.23c-1.034,0-1.871-0.839-1.871-1.873v-1.874c0-1.033,0.836-1.867,1.871-1.867h4.23
	c1.033,0,1.871,0.834,1.871,1.867V45.337z M24.792,34.363c0,1.034-0.838,1.875-1.871,1.875h-4.23c-1.034,0-1.871-0.839-1.871-1.875
	v-1.868c0-1.034,0.836-1.874,1.871-1.874h4.23c1.033,0,1.871,0.839,1.871,1.874V34.363z M35.641,60.932
	c0,1.034-0.842,1.878-1.874,1.878h-4.227c-1.037,0-1.874-0.844-1.874-1.878v-1.873c0-1.029,0.837-1.868,1.874-1.868h4.227
	c1.032,0,1.874,0.838,1.874,1.868V60.932z M35.641,53.138c0,1.028-0.842,1.874-1.874,1.874h-4.227c-1.037,0-1.874-0.839-1.874-1.874
	v-1.874c0-1.033,0.837-1.873,1.874-1.873h4.227c1.032,0,1.874,0.839,1.874,1.873V53.138z M35.641,45.337
	c0,1.028-0.842,1.873-1.874,1.873h-4.227c-1.037,0-1.874-0.839-1.874-1.873v-1.874c0-1.033,0.837-1.867,1.874-1.867h4.227
	c1.032,0,1.874,0.834,1.874,1.867V45.337z M35.641,34.363c0,1.034-0.842,1.875-1.874,1.875h-4.227c-1.037,0-1.874-0.839-1.874-1.875
	v-1.868c0-1.034,0.837-1.874,1.874-1.874h4.227c1.032,0,1.874,0.839,1.874,1.874V34.363z M46.481,60.932
	c0,1.034-0.838,1.878-1.873,1.878h-4.224c-1.033,0-1.873-0.844-1.873-1.878v-1.873c0-1.029,0.838-1.868,1.873-1.868h4.224
	c1.033,0,1.873,0.838,1.873,1.868V60.932z M46.481,53.138c0,1.028-0.838,1.874-1.873,1.874h-4.224c-1.033,0-1.873-0.839-1.873-1.874
	v-1.874c0-1.033,0.838-1.873,1.873-1.873h4.224c1.033,0,1.873,0.839,1.873,1.873V53.138z M46.481,45.337
	c0,1.028-0.838,1.873-1.873,1.873h-4.224c-1.033,0-1.873-0.839-1.873-1.873v-1.874c0-1.033,0.838-1.867,1.873-1.867h4.224
	c1.033,0,1.873,0.834,1.873,1.867V45.337z M46.481,34.363c0,1.034-0.838,1.875-1.873,1.875h-4.224c-1.033,0-1.873-0.839-1.873-1.875
	v-1.868c0-1.034,0.838-1.874,1.873-1.874h4.224c1.033,0,1.873,0.839,1.873,1.874V34.363z M57.325,60.932
	c0,1.034-0.838,1.878-1.871,1.878h-4.227c-1.034,0-1.874-0.844-1.874-1.878v-9.668c0-1.034,0.84-1.874,1.874-1.874h4.227
	c1.032,0,1.871,0.839,1.871,1.874V60.932L57.325,60.932z M57.325,45.337c0,1.028-0.838,1.873-1.871,1.873h-4.227
	c-1.034,0-1.874-0.839-1.874-1.873v-1.874c0-1.033,0.84-1.867,1.874-1.867h4.227c1.032,0,1.871,0.834,1.871,1.867V45.337
	L57.325,45.337z M57.325,34.363c0,1.034-0.838,1.875-1.871,1.875h-4.227c-1.034,0-1.874-0.839-1.874-1.875v-1.868
	c0-1.034,0.84-1.874,1.874-1.874h4.227c1.032,0,1.871,0.839,1.871,1.874V34.363L57.325,34.363z M57.325,24.225
	c0,1.034-0.838,1.874-1.871,1.874H18.691c-1.034,0-1.871-0.839-1.871-1.874v-8.265c0-1.035,0.836-1.871,1.871-1.871h36.764
	c1.031,0,1.87,0.836,1.87,1.871V24.225L57.325,24.225z"/>
</svg>
