<?xml version="1.0" encoding="utf-8"?>
<!-- Generator: Adobe Illustrator 16.0.3, SVG Export Plug-In . SVG Version: 6.00 Build 0)  -->
<!DOCTYPE svg PUBLIC "-//W3C//DTD SVG 1.1//EN" "http://www.w3.org/Graphics/SVG/1.1/DTD/svg11.dtd">
<svg version="1.1" id="Calque_1" xmlns="http://www.w3.org/2000/svg" xmlns:xlink="http://www.w3.org/1999/xlink" x="0px" y="0px"
	 width="75px" height="75px" viewBox="0 0 75 75" enable-background="new 0 0 75 75" xml:space="preserve">
<g id="g3763" transform="matrix(0.02870387,0,0,0.02870387,-83.894895,102.76536)">
	<g id="g4040" transform="matrix(-1,0,0,1,1010.0388,-3547.0452)">
		<path id="path5137" fill="#3F3F3F" d="M-3164.707,237.786c-51.985-30.194-118.583-12.52-148.829,39.448
			c-13.302,22.948-17.725,49.944-12.588,75.954l145.8,714.884l-50.063,8.522l-380.738-685.863l-1.055-2.058
			c-29.531-52.377-95.874-70.918-148.301-41.439c-51.135,28.782-70.221,92.914-43.208,145.001l364.238,691.136l-29.225,35.383
			l-480.865-497.008c-41.983-43.089-110.877-44.041-153.915-2.143c-41.813,40.639-44.229,107.016-5.41,150.53l499.202,556.648
			l-27.149,54.639l-554.589-147.587c-58.144-15.276-117.647,19.495-132.924,77.638c-14.459,55.081,15.957,112.068,69.881,130.576
			l596.335,202.736l376.247,423.334l24.768,172.014c7.689,53.618,53.687,93.39,107.849,93.322l446.366-0.578
			c54.18-0.068,100.058-39.976,107.628-93.594l88.406-625.729l123.635-290.716c1.752-4.151,3.249-8.403,4.474-12.69l72.5-253.803
			l121.016-221.907c28.714-52.802,9.186-118.906-43.633-147.621c-49.859-27.098-112.17-11.363-143.181,36.199l-135.203,208.078
			c-2.365,3.64-4.508,7.4-6.43,11.295l-123.907,251.847l-75.477,29.599l-89.511-51.526l-115.3-165.891l-195.915-800.84
			C-3120.887,277.013-3139.259,252.568-3164.707,237.786L-3164.707,237.786z"/>
	</g>
</g>
</svg>
