<?xml version="1.0" encoding="utf-8"?>
<!-- Generator: Adobe Illustrator 16.0.3, SVG Export Plug-In . SVG Version: 6.00 Build 0)  -->
<!DOCTYPE svg PUBLIC "-//W3C//DTD SVG 1.1//EN" "http://www.w3.org/Graphics/SVG/1.1/DTD/svg11.dtd">
<svg version="1.1" id="Calque_1" xmlns="http://www.w3.org/2000/svg" xmlns:xlink="http://www.w3.org/1999/xlink" x="0px" y="0px"
	 width="75px" height="75px" viewBox="0 0 75 75" enable-background="new 0 0 75 75" xml:space="preserve">
<g>
	<path fill="#3F3F3F" d="M68.259,31.456L38.232,10.438c-0.317-0.223-0.74-0.223-1.057,0L7.158,31.456
		c-0.2,0.141-0.336,0.355-0.379,0.594c-0.042,0.241,0.013,0.489,0.153,0.688l4.088,5.838c0.18,0.257,0.465,0.394,0.756,0.394
		c0.182,0,0.367-0.054,0.527-0.167l25.405-17.791l25.404,17.791c0.419,0.292,0.991,0.19,1.282-0.227l4.09-5.838
		c0.14-0.2,0.196-0.448,0.152-0.688C68.595,31.811,68.458,31.597,68.259,31.456z"/>
	<path fill="#3F3F3F" d="M60.798,40.799L38.235,25c-0.315-0.222-0.739-0.222-1.056,0L14.498,40.883
		c-0.247,0.172-0.393,0.454-0.393,0.756v24.416c0,0.508,0.413,0.921,0.921,0.921h15.782c0.509,0,0.921-0.413,0.921-0.921V44.777
		h11.957v21.277c0,0.508,0.412,0.921,0.92,0.921h15.664c0.509,0,0.92-0.413,0.92-0.921V41.553
		C61.19,41.253,61.046,40.973,60.798,40.799z"/>
	<path fill="#3F3F3F" d="M52.603,17.345l7.063,4.945c0.157,0.11,0.342,0.166,0.527,0.166c0.146,0,0.293-0.034,0.427-0.104
		c0.303-0.158,0.495-0.473,0.495-0.818V11.101c0-0.509-0.413-0.921-0.922-0.921H53.13c-0.51,0-0.921,0.413-0.921,0.921v5.489
		C52.208,16.89,52.354,17.172,52.603,17.345z"/>
</g>
</svg>
