<?xml version="1.0" encoding="utf-8"?>
<svg width="75px" height="75px" viewBox="141.397 122.536 87.203 68.828" xmlns="http://www.w3.org/2000/svg">
  <path fill="#3F3F3F" d="M 185.229 146.524 L 219.639 137.595 L 219.639 145.415 C 219.639 146.532 220.546 147.434 221.659 147.434 C 222.772 147.434 223.678 146.528 223.678 145.415 L 223.678 136.548 L 227.913 135.45 C 228.323 135.345 228.6 134.985 228.6 134.559 C 228.6 134.134 228.323 133.778 227.913 133.669 L 184.999 122.536 L 142.085 133.673 C 141.675 133.778 141.397 134.138 141.397 134.563 C 141.397 134.989 141.675 135.345 142.085 135.454 C 156.315 139.145 170.534 142.837 184.769 146.528 C 184.925 146.567 185.073 146.567 185.23 146.528 L 185.229 146.524 Z M 170.163 181.571 L 170.163 191.364 L 173.195 187.931 C 173.253 187.864 173.316 187.798 173.386 187.739 C 174.218 187.001 175.491 187.079 176.226 187.915 L 179.273 191.364 L 179.273 181.571 L 170.163 181.571 Z M 222.155 177.532 L 160.139 177.532 C 159.022 177.532 158.12 178.439 158.12 179.552 C 158.12 180.665 159.026 181.571 160.139 181.571 L 166.12 181.571 L 166.12 189.005 L 151.319 189.005 C 148.721 189.005 146.358 187.942 144.643 186.228 C 142.928 184.513 141.866 182.149 141.866 179.552 C 141.866 176.954 142.928 174.591 144.643 172.876 C 146.358 171.161 148.721 170.099 151.319 170.099 L 223.671 170.099 C 223.327 171.067 223.038 172.075 222.804 173.11 C 222.479 174.54 222.261 176.017 222.155 177.532 Z M 223.671 189.009 C 223.327 188.041 223.038 187.033 222.804 185.998 C 222.48 184.568 222.261 183.091 222.155 181.576 L 183.311 181.576 L 183.311 189.009 L 223.671 189.009 Z M 160.956 160.9 L 160.956 144.509 L 184.464 150.607 C 184.792 150.701 185.151 150.709 185.507 150.615 L 209.046 144.509 L 209.046 160.9 L 160.956 160.9 Z" fill-rule="evenodd"/>
</svg>